<?xml version="1.0" encoding="UTF-8"?>
<svg id="_图层_1" data-name="图层 1" xmlns="http://www.w3.org/2000/svg" viewBox="0 0 140.05 50">
  <path d="m32.15,40.89c0,1.69-.84,2.06-2.73,2.2h-.53c-1.16,0-1.96-.32-1.96-1.74v-1.14h-10.96v.55c0,1.65-.63,2.24-2.66,2.38h-.53c-1.12,0-1.96-.27-1.96-1.65v-.18c.07-5.63.32-15.34.32-23.35,0-4.81-.04-8.98-.18-11.36-.32.18-.49.5-.63,1.24-.42,2.15-1.05,4.4-1.86,6.59.53.23,1.19.46,1.44.55.39.18.56.46.56.78,0,.27-.21.6-.49.78-.67.32-.81.5-.81,1.28-.03,2.52-.07,6.04-.07,9.94,0,4.3.14,9.07.14,13.23v.09c0,1.42-.7,1.88-2.59,2.06h-.46c-1.68,0-2.14-.69-2.14-1.97v-.14c.07-3.98.28-11.08.28-16.81v-1.6c-.63.82-1.3,1.6-2,2.34-.14.14-.28.23-.42.23-.18,0-.32-.18-.32-.46,0-.14.04-.27.1-.46,2.52-7.78,3.68-17.35,3.68-20.42v-.27c0-.23-.04-.37-.04-.5,0-.23.04-.32.25-.32.1,0,.21,0,.35.05,1.4.41,3.19.96,4.73,1.51-.04-.18-.07-.37-.07-.46,0-.32.1-.46.31-.46.1,0,.25,0,.39.09,2.03.96,5.04,2.61,5.04,2.61h9.88c.32,0,.46-.09.63-.27.49-.6,1.26-1.56,1.93-2.34.14-.18.28-.27.46-.27.14,0,.28.09.46.23.88.78,2.28,2.11,3.19,2.98.28.27.46.6.46.96,0,.41-.21.82-.56,1.14-.53.5-.74.69-.77,1.69-.07,1.97-.1,5.22-.1,8.98,0,6.96.25,15.71.25,21.61v.09Zm-6.2-6.69c0,1.19-.74,1.47-1.96,1.65-.25.05-.49.05-.7.05-.67,0-1.12-.23-1.12-1.14v-.09c.04-.41.04-.82.04-1.24h-1.44c.04.37.04.78.04,1.14v.09c0,1.19-.6,1.47-1.96,1.65-.21.05-.42.05-.63.05-.7,0-1.19-.23-1.19-1.19v-.18c.04-2.52.21-5.82.21-8.56,0-2.29-.04-4.21-.18-5.04-.04-.32-.07-.55-.07-.73,0-.23.03-.32.17-.32.1,0,.25.09.46.18.6.37,1.23.73,1.72,1.05.03-1.69.03-3.62.03-5.17-1.12,0-1.54.05-2.17.32-.07.05-.1.05-.18.05-.21,0-.42-.18-.52-.46-.14-.37-.28-.96-.42-1.56-.04-.14-.04-.18-.04-.27,0-.14.07-.18.18-.18h.04c.07,0,.17,0,.28.05.98.37,1.75.5,2.84.55v-1.19c0-1.74-.03-3.07-.1-3.71-.03-.55-.1-.92-.1-1.14,0-.18.07-.27.28-.27h.21c1.44.18,3.33.5,4.62.78.42.09.67.41.67.78,0,.32-.21.64-.6.78-.35.14-.56.27-.63.78v.18c0,1.01-.04,2.02-.07,3.02.18-.05.32-.18.39-.37.28-.69.7-1.6,1.09-2.38.07-.18.21-.27.35-.27.1,0,.25.09.38.27.32.5.77,1.24,1.23,2.01,0-2.47-.04-4.67-.11-6.46h-11c-.07,2.52-.07,6.73-.07,11.45,0,6.46.04,13.88.07,19.42h11c.07-5.36.11-12.04.11-18.13v-4.03h-3.43c0,1.47,0,3.3.04,4.99.14-.23.28-.46.46-.69.1-.14.21-.18.32-.18.14,0,.25.05.39.18.6.6,1.26,1.42,1.82,2.11.21.23.35.55.35.87,0,.27-.1.55-.39.78-.53.46-.74.5-.74,1.19-.04.82-.04,1.83-.04,2.84,0,1.92.07,3.98.11,5.63v.09Zm-3.68-2.38c.07-1.97.1-3.89.1-5.68,0-.96,0-1.92-.03-2.79h-1.54c-.04,1.51-.07,3.16-.07,4.85,0,1.19.03,2.38.03,3.62h1.51Z"/>
  <path d="m48.25,2.7c1.79.05,4.66.6,6.65.96.53.09.77.46.77.82,0,.41-.28.82-.81,1.05-.39.18-.63.32-.77.5.77,16.99,7.39,25.55,13.83,28.12.21.09.39.37.39.64,0,.23-.11.46-.42.64-1.82,1.05-2.42,3.8-2.84,7.1-.04.37-.28.6-.53.6-.1,0-.18-.05-.25-.09-6.09-4.4-9.81-14.01-10.65-28.02-.49,5.82-1.02,10.21-3.01,15.39-2.63,6.78-6.86,10.72-13.24,12.68-.07.05-.18.05-.25.05-.25,0-.39-.18-.39-.37s.07-.41.28-.6c4.13-4.17,7.28-9.48,8.93-15.84,1.54-5.86,1.93-13.23,1.93-18.68,0-1.14,0-2.24-.03-3.21,0-.64-.1-1.1-.1-1.37s.1-.37.39-.37h.1Z"/>
  <path d="m100.98,37.91c0,3.3-1.05,4.58-4.8,5.17-.11,0-.21.05-.32.05-.56,0-.74-.37-.77-.92-.21-2.93-.21-3.85-1.54-4.76-.14.96-.91,1.19-2.38,1.33-.32.05-.63.05-.91.05-.84,0-1.4-.27-1.4-1.51v-.14h-3.01v.23c0,1.56-.74,1.97-2.59,2.01h-.49c-1.02,0-1.65-.18-1.65-1.37v-.18c.04-2.52.25-5.31.25-7.65,0-1.74-.07-3.25-.21-4.12-.07-.37-.1-.64-.1-.78,0-.23.07-.32.21-.32.07,0,.21.05.38.09,2,.64,4.52,1.69,4.52,1.69h2.03c.32,0,.42-.14.63-.32.49-.5,1.12-1.1,1.72-1.6.14-.09.28-.14.42-.14s.28.05.46.14c.84.55,1.89,1.37,2.84,2.2.25.18.46.55.46.92,0,.32-.14.69-.53.96-.53.41-.67.59-.7,1.46,0,.64-.04,1.37-.04,2.15,0,1.1.04,2.24.07,3.3.63.05,1.08.05,1.51.05.63,0,.77-.23.8-1.05.07-1.88.11-6.59.11-11.31h-2.94c-.25.64-.91.92-2.38,1.05-.28.05-.53.05-.77.05-1.08,0-1.68-.37-1.68-1.42v-.27c.04-1.74.14-3.85.14-5.77s-.07-3.66-.21-4.67c0-.09-.03-.18-.03-.23-.04-.41-.07-.69-.07-.87-.35.18-.74.41-1.12.6-.07.05-.14.05-.21.05-.21,0-.32-.14-.32-.37,0-.09,0-.23.07-.32.6-1.19,1.05-2.29,1.44-3.39h-4.94c.7.37,1.23,1.19,1.23,2.11,0,.18,0,.41-.07.6.17,0,.35.05.53.18.8.6,2.17,1.65,2.98,2.47.25.23.42.55.42.92,0,.32-.14.64-.46.92-.6.5-.81.55-.81,1.37,0,1.69.07,3.98.07,6.36v.18c0,1.28-.77,1.6-2.49,1.79-.32.05-.6.05-.88.05-.98,0-1.54-.32-1.58-1.37h-2.59v4.21c0,4.62.1,9.25.14,13v.23c0,1.56-.7,1.97-2.73,2.15-.25,0-.49.05-.74.05-1.26,0-1.89-.37-1.89-1.6v-.28c.07-4.72.25-11.95.25-18,0-5.5-.11-10.03-.32-10.9-.56.32-1.12.6-1.72.82-.07.05-.14.05-.21.05-.21,0-.32-.14-.32-.32,0-.14.04-.27.14-.41,2-3.34,3.12-6.41,3.61-9.34.07-.41,0-.6.32-.6h.1c1.82.23,4.03.6,5.64.96.46.09.67.41.67.78,0,.32-.25.73-.77.82-.63.14-.7.18-.95.64-.11.18-.21.41-.32.6h2.07c.32,0,.49-.14.67-.37l2-2.61c.11-.14.21-.23.35-.23.1,0,.25.09.38.23.81.78,1.72,1.83,2.63,3.07.31-1.15.56-2.24.7-3.3.07-.41.04-.55.32-.55h.14c1.79.23,3.78.55,5.36.92.49.09.74.41.74.78s-.25.69-.77.82c-.56.14-.7.27-.95.64-.14.18-.28.41-.42.6h2.87c.31,0,.49-.09.67-.37.56-.82,1.37-1.92,2.03-2.79.1-.14.25-.18.38-.18.11,0,.25.05.39.18.91.92,2.38,2.43,3.4,3.66.11.14.17.32.17.5,0,.27-.17.55-.49.55h-6.3c.84.46,1.29,1.24,1.29,2.24,0,.27-.03.55-.1.87.25-.32.42-.46.6-.46s.31.09.56.27c.67.5,2,1.6,2.98,2.52.32.27.49.64.49,1.05,0,.37-.14.69-.53,1.01-.63.46-.84.78-.84,1.92,0,1.42-.04,4.99-.04,8.98s.07,8.33.07,11.36v.18Zm-19.82-24.64c.32,0,.42-.05.63-.27.1-.14.25-.27.38-.46-.17.05-.35.09-.53.09-.63,0-1.19-.37-1.44-1.19-.14-.46-.17-.82-.17-1.14s.04-.6.04-.82c0-.46-.11-.92-.7-1.51h-.25c-1.01,1.33-2.28,2.56-3.75,3.57,1.89.69,4.24,1.74,4.24,1.74h1.54Zm-1.89,5.77v2.93h2.63c.04-1.01.04-1.97.07-2.93h-2.7Zm.07-4.21c0,.82-.04,1.74-.04,2.66h2.66c0-.96,0-1.83-.04-2.66h-2.59Zm6.48,13.37c0,.92-.04,1.88-.04,2.84h3.15c.04-.5.04-1.01.04-1.47s-.04-.92-.04-1.37h-3.12Zm-.04,4.26c0,1.05,0,2.11.04,3.25h3.08c.04-1.1.04-2.2.07-3.25h-3.19Zm9.63-19.19c.35,0,.49-.09.67-.27.14-.18.28-.37.46-.55-.32.18-.67.27-1.02.27-.74,0-1.51-.41-1.89-1.37-.17-.37-.21-.73-.21-1.05,0-.23.04-.46.04-.69,0-.55-.11-1.05-.81-1.65h-.49c-1.02,1.19-2.24,2.2-3.68,3.11,1.82.64,4.94,2.2,4.94,2.2h2Zm-2.35,1.56v2.66h2.84c0-.96,0-1.83-.04-2.66h-2.8Zm0,4.21c0,1.01,0,1.97.04,2.93h2.84c0-1.01,0-1.97-.04-2.93h-2.84Z"/>
  <path d="m107.73,43.18c-.32,0-.46-.23-.46-.46,0-.18.07-.32.21-.46,3.4-2.79,5.11-5.95,5.85-9.66.49-2.52.7-6.64.7-10.03,0-1.47-.04-2.79-.11-3.8-2,1.15-4.31,2.02-6.79,2.7-.07,0-.11.05-.18.05-.21,0-.35-.18-.35-.46,0-.18.07-.41.28-.55,5.71-5.22,9.98-12.13,10.86-17.08.11-.5.04-.73.38-.73.07,0,.21,0,.35.05,2.03.32,4.27.69,6.65,1.19.35.09.6.46.6.87,0,.37-.21.73-.7.87-.28.09-.49.14-.67.23,3.22,4.26,7.39,6,13.55,6.5.35.05.53.32.53.6,0,.32-.14.64-.42.82-1.33.92-1.51,3.25-1.79,6.59-.04.46-.25.6-.49.6-.07,0-.18,0-.28-.05-5.95-2.2-9.7-6.59-12.01-13.78-2.14,5.22-5.04,8.7-8.75,11.08,1.72.18,4.03.6,5.95,1.01.46.09.7.46.7.82,0,.32-.21.69-.59.87-.74.32-.98.55-.98,1.19-.07,5.82-.42,10.21-1.72,13.65-1.54,4.12-5.01,7.37-10.3,7.37h-.04Zm22.62-1.97c0,1.28-1.12,1.83-3.15,1.92-.25,0-.46.05-.67.05-1.51,0-2.17-.46-2.17-1.65v-.18c.04-3.71.25-9.8.25-14.65,0-3.43-.03-6.23-.17-7.19-.07-.5-.1-.82-.1-1.01,0-.27.07-.37.28-.37.07,0,.18.05.32.05,1.68.23,4.17.64,6.2,1.15.42.09.63.5.63.87s-.21.73-.63.92c-.56.23-.88.46-.88,1.05-.04,1.56-.07,3.85-.07,6.37,0,4.17.17,9.02.17,12.55v.14Z"/>
</svg>