<?xml version="1.0" encoding="UTF-8"?>
<svg id="_图层_1" data-name="图层 1" xmlns="http://www.w3.org/2000/svg" viewBox="0 0 40 40">
  <defs>
    <style>
      .cls-1 {
        fill: #666;
      }
    </style>
  </defs>
  <path class="cls-1" d="m6.61,27.81c-.22,0-.29-.02-.29-.16s.04-.2.2-.22c1.17-.13,1.48-.34,1.48-.79v-2.14H3.22c-.36,0-.52-.14-.52-.58,0-.47,0-.54.23-.83l6.73-8.71c.18-.23.29-.31.76-.31s.52.05.52.4v9.09h2.2c.23,0,.31.02.31.47s-.09.47-.31.47h-2.2v2.14c0,.43.2.67,1.37.79.16.02.2.07.2.22s-.07.16-.27.16h-5.64Zm1.37-4.25s.02-4.16.11-5.62h-.07c-.25.36-4.11,5.62-4.11,5.62h4.07Z"/>
  <path class="cls-1" d="m15.1,21.11c0-3.33,1.03-7.04,4.88-7.04s4.92,3.29,4.92,7.04c0,3.38-1.08,7.02-4.92,7.02s-4.88-3.15-4.88-7.02Zm6.82.02c0-3.96-.56-6.16-1.94-6.16s-1.94,2.2-1.94,6.16.56,6.05,1.94,6.05,1.94-1.98,1.94-6.05Z"/>
  <path class="cls-1" d="m30.51,27.81c-.22,0-.29-.02-.29-.16s.04-.2.2-.22c1.17-.13,1.48-.34,1.48-.79v-2.14h-4.77c-.36,0-.52-.14-.52-.58,0-.47,0-.54.23-.83l6.73-8.71c.18-.23.29-.31.76-.31s.52.05.52.4v9.09h2.2c.23,0,.31.02.31.47s-.09.47-.31.47h-2.2v2.14c0,.43.2.67,1.37.79.16.02.2.07.2.22s-.07.16-.27.16h-5.64Zm1.37-4.25s.02-4.16.11-5.62h-.07c-.25.36-4.1,5.62-4.1,5.62h4.07Z"/>
</svg>