<?xml version="1.0" encoding="UTF-8"?>
<svg id="_图层_1" data-name="图层 1" xmlns="http://www.w3.org/2000/svg" viewBox="0 0 300 107">
  <path d="m68.85,87.5c0,3.62-1.8,4.41-5.85,4.7h-1.12c-2.48,0-4.2-.69-4.2-3.72v-2.45h-23.47v1.18c0,3.53-1.35,4.8-5.7,5.09h-1.12c-2.4,0-4.2-.59-4.2-3.53v-.39c.15-12.05.68-32.83.68-49.98,0-10.29-.08-19.21-.38-24.3-.68.39-1.05,1.08-1.35,2.65-.9,4.61-2.25,9.41-3.97,14.11,1.12.49,2.55.98,3.07,1.18.83.39,1.2.98,1.2,1.67,0,.59-.45,1.27-1.05,1.67-1.42.69-1.72,1.08-1.72,2.74-.08,5.39-.15,12.93-.15,21.26,0,9.21.3,19.4.3,28.32v.2c0,3.04-1.5,4.02-5.55,4.41h-.98c-3.6,0-4.57-1.47-4.57-4.21v-.29c.15-8.53.6-23.71.6-35.96v-3.43c-1.35,1.76-2.77,3.43-4.27,5-.3.29-.6.49-.9.49-.38,0-.68-.39-.68-.98,0-.29.08-.59.23-.98,5.4-16.66,7.87-37.14,7.87-43.7v-.59c0-.49-.07-.78-.07-1.08,0-.49.07-.69.52-.69.23,0,.45,0,.75.1,3,.88,6.82,2.06,10.12,3.23-.08-.39-.15-.78-.15-.98,0-.69.23-.98.67-.98.23,0,.52,0,.83.2,4.35,2.06,10.8,5.59,10.8,5.59h21.15c.67,0,.97-.2,1.35-.59,1.05-1.27,2.7-3.33,4.12-5,.3-.39.6-.59.98-.59.3,0,.6.2.98.49,1.87,1.67,4.87,4.51,6.82,6.37.6.59.97,1.27.97,2.06,0,.88-.45,1.76-1.2,2.45-1.12,1.08-1.58,1.47-1.65,3.63-.15,4.21-.23,11.17-.23,19.21,0,14.9.52,33.61.52,46.25v.2Zm-13.27-14.31c0,2.55-1.57,3.14-4.2,3.53-.52.1-1.05.1-1.5.1-1.42,0-2.4-.49-2.4-2.45v-.2c.07-.88.07-1.76.07-2.65h-3.07c.08.78.08,1.67.08,2.45v.2c0,2.55-1.27,3.14-4.2,3.53-.45.1-.9.1-1.35.1-1.5,0-2.55-.49-2.55-2.55v-.39c.07-5.39.45-12.44.45-18.32,0-4.9-.07-9.02-.38-10.78-.07-.69-.15-1.18-.15-1.57,0-.49.08-.69.38-.69.23,0,.52.2.98.39,1.27.78,2.62,1.57,3.67,2.25.07-3.63.07-7.74.07-11.07-2.4,0-3.3.1-4.65.69-.15.1-.23.1-.38.1-.45,0-.9-.39-1.12-.98-.3-.78-.6-2.06-.9-3.33-.08-.29-.08-.39-.08-.59,0-.29.15-.39.38-.39h.08c.15,0,.37,0,.6.1,2.1.78,3.75,1.08,6.07,1.18v-2.55c0-3.72-.07-6.57-.22-7.94-.08-1.18-.23-1.96-.23-2.45,0-.39.15-.59.6-.59h.45c3.07.39,7.12,1.08,9.9,1.67.9.2,1.43.88,1.43,1.67,0,.69-.45,1.37-1.27,1.67-.75.29-1.2.59-1.35,1.67v.39c0,2.16-.08,4.31-.15,6.47.38-.1.67-.39.82-.78.6-1.47,1.5-3.43,2.33-5.1.15-.39.45-.59.75-.59.22,0,.52.2.82.59.68,1.08,1.65,2.65,2.62,4.31,0-5.29-.08-10-.23-13.82h-23.55c-.15,5.39-.15,14.4-.15,24.5,0,13.82.07,29.69.15,41.55h23.55c.15-11.46.23-25.77.23-38.8v-8.62h-7.35c0,3.14,0,7.06.07,10.68.3-.49.6-.98.98-1.47.23-.29.45-.39.67-.39.3,0,.53.1.83.39,1.27,1.27,2.7,3.04,3.9,4.51.45.49.75,1.18.75,1.86,0,.59-.23,1.18-.83,1.67-1.12.98-1.57,1.08-1.57,2.55-.08,1.76-.08,3.92-.08,6.08,0,4.12.15,8.53.23,12.05v.2Zm-7.87-5.09c.15-4.21.22-8.33.22-12.15,0-2.06,0-4.12-.07-5.98h-3.3c-.08,3.23-.15,6.76-.15,10.39,0,2.55.07,5.1.07,7.74h3.23Z"/>
  <path d="m103.35,5.78c3.83.1,9.97,1.27,14.25,2.06,1.12.2,1.65.98,1.65,1.76,0,.88-.6,1.76-1.72,2.25-.83.39-1.35.69-1.65,1.08,1.65,36.35,15.82,54.68,29.62,60.17.45.2.83.78.83,1.37,0,.49-.23.98-.9,1.37-3.9,2.25-5.17,8.13-6.08,15.19-.07.78-.6,1.27-1.12,1.27-.23,0-.38-.1-.53-.2-13.05-9.41-21-29.99-22.8-59.97-1.05,12.44-2.17,21.85-6.45,32.93-5.62,14.5-14.7,22.93-28.35,27.14-.15.1-.38.1-.52.1-.52,0-.82-.39-.82-.78s.15-.88.6-1.27c8.85-8.92,15.6-20.28,19.12-33.91,3.3-12.54,4.12-28.32,4.12-39.98,0-2.45,0-4.8-.07-6.86,0-1.37-.23-2.35-.23-2.94s.23-.78.83-.78h.22Z"/>
  <path d="m219,81.62c0,7.15-2.62,9.5-10.87,10.68h-.53c-1.05,0-1.28-.59-1.42-1.76-.6-6.47-1.42-8.13-6.52-10.78-.3-.2-.53-.69-.53-1.18s.22-.88.75-.88h.08c1.88,0,4.27.29,6.3.29h1.27c1.35,0,1.58-.59,1.58-2.25.08-5.19.15-13.52.22-22.54h-9.45v7.84c0,1.27.3,1.86,1.2,1.86h.52c.67,0,1.28-.1,2.17-.59.38-.2.68-.29.98-.29,1.27,0,2.25,1.47,3.3,4.41.52,1.47.83,2.74.83,3.82,0,1.67-.83,2.84-3.23,3.43-1.65.39-3.75.59-5.77.59-1.5,0-3-.1-4.2-.29-3-.39-4.12-2.74-4.12-6.27v-4.51c0-3.92-.07-6.86-.22-9.99h-2.1c0,14.31.15,28.12.15,35.08v.2c0,2.84-1.42,3.33-5.17,3.72-.52.1-1.05.1-1.5.1-2.25,0-3.37-.88-3.37-3.23v-.2c.07-2.55.15-6.17.22-10.48-.75,1.86-1.95,2.74-3.08,2.74-1.65,0-3.15-1.76-3.15-5.1v-.29c0-3.43.67-6.17.67-9.41,0-2.25-.38-4.8-1.58-7.94-.08-.2-.08-.29-.08-.49,0-.49.3-.88.68-.88.15,0,.3.1.52.29,3.3,3.33,5.25,6.96,6.15,10.97.07-5.29.07-11.07.07-16.76-.6,2.35-2.25,3.63-3.82,3.63-1.28,0-2.48-.88-3-2.84-.3-1.08-.38-2.25-.38-3.33v-1.37c-.15.1-.38.2-.53.29v10.09c0,10.78.3,21.36.3,29.5v.29c0,3.14-1.05,4.21-5.4,4.51h-1.05c-2.85,0-3.83-1.08-3.83-3.62v-.59c.08-3.14.23-6.37.3-9.7.08-3.33.15-6.86.15-10.29-1.65,7.05-3.75,13.82-7.72,19.4-.3.39-.6.59-.83.59-.3,0-.52-.29-.52-.88,0-.2,0-.39.07-.59,1.73-8.92,2.55-19.21,2.55-26.46v-.98c0-.59-.08-1.18-.08-1.47s.08-.49.38-.49c.08,0,.22.1.38.1,1.95.59,3.9,1.27,5.77,2.06v-6.96c-1.05.39-2.1.69-3.08.98-.82.29-1.2.59-1.35,1.67-.15.98-.67,1.57-1.12,1.57s-.83-.39-1.05-1.27c-.9-3.33-1.58-8.13-2.17-11.56-.08-.39-.08-.59-.08-.88,0-.49.15-.69.45-.69s.6.1.97.2c1.28.2,2.78.29,4.35.49,1.2-2.25,2.4-4.41,3.45-6.57-.6.29-1.2.39-1.72.39-1.28,0-2.4-.59-3-1.96-.98-2.16-1.05-4.02-1.05-5.88v-.78c0-2.55-.08-5.1-2.48-8.33-.22-.2-.3-.49-.3-.78,0-.49.3-.88.75-.88.08,0,.15.1.23.1,1.35.39,2.62.88,3.67,1.37.75-3.33,1.2-6.96,1.42-10.09.08-.78.15-1.57.15-2.25v-.98c0-.39.08-.59.6-.59.15,0,.38,0,.67.1,3.45.69,7.57,1.67,10.87,2.74.9.29,1.35.98,1.35,1.67s-.45,1.27-1.42,1.57c-1.2.29-1.42.2-1.8.69-2.33,3.23-5.4,6.47-8.62,9.11,2.33,1.96,3.83,4.31,3.9,7.35.6-1.47,1.2-2.94,1.65-4.31.9-2.45,1.5-4.61,1.95-6.47.22-1.18.38-1.57.67-1.57.15,0,.3.1.52.2,3,1.27,6,2.65,8.7,4.21-.08-6.96-.15-11.86-.38-12.74-.15-.59-.23-1.08-.23-1.37,0-.39.15-.59.45-.59.15,0,.38,0,.6.1,4.65,1.67,9.52,3.82,10.27,4.31h17.17c.67,0,.9-.29,1.2-.59,1.2-1.37,2.7-2.84,3.83-4.02.22-.29.52-.39.82-.39s.68.1,1.05.39c1.72,1.27,4.5,3.43,6.15,5,.52.49.83,1.18.83,1.86s-.3,1.27-.9,1.86c-1.2,1.18-1.5,1.67-1.5,3.23-.08,5-.08,14.99-.08,25.67,0,14.7.08,30.87.08,37.73v.2Zm-39.3-56.93c-1.12.1-1.35.2-1.73.78-3.52,6.37-8.25,12.35-14.1,17.64,1.2,0,2.4.1,3.67.1,1.73,0,3.53-.1,5.25-.2,0-1.96-.38-4.02-1.65-5.98-.15-.2-.15-.39-.15-.59,0-.39.23-.78.67-.78.08,0,.15,0,.3.1,3.9,2.35,6.9,5.68,7.8,10.19,0-7.64,0-14.99-.07-21.26Zm29.62-10.58h-20.02c-.08,4.9-.08,12.25-.08,20.48h9.6c.97-4.61,1.65-10.78,1.65-15.58,0-.88,0-1.76-.07-2.55v-.69c0-.49.07-.78.52-.78h.08c.15,0,.38,0,.6.1,2.4.88,5.03,1.67,7.72,3.04v-4.02Zm0,23.71h-20.1v12.15h5.25v-2.55c0-1.57,0-3.14-.23-5.1-.15-1.67-.45-2.55-.45-2.94,0-.29.15-.39.45-.39h.6c2.92.1,6.52.78,9,1.27.9.2,1.35.78,1.35,1.47s-.45,1.47-1.42,1.76c-1.05.39-1.12.69-1.2,1.57v4.8c.38-.1.6-.39.82-.88.6-1.37,1.43-3.14,2.1-4.41.15-.39.45-.59.75-.59s.6.2.82.59c.6,1.08,1.5,2.65,2.25,4.12v-10.88Zm-10.42-9.41c0,3.63-2.1,5.59-4.05,5.59-1.58,0-3-1.18-3.38-3.82-.08-.59-.15-1.18-.15-1.67,0-2.25.6-4.02.6-5.98,0-1.47-.3-3.14-1.5-5.39-.15-.29-.23-.49-.23-.78,0-.49.3-.78.75-.78.15,0,.3.1.53.2,4.12,2.25,7.42,6.96,7.42,12.25v.39Zm10.42-7.74c-1.35.49-1.65.88-2.02,1.86-1.2,3.53-3.3,8.23-6.08,12.05h1.58c.67,0,.97-.29,1.28-.98.52-1.27,1.27-3.14,1.95-4.41.15-.39.45-.59.75-.59s.6.2.83.59c.6,1.08,1.2,2.35,1.72,3.72v-12.25Z"/>
  <path d="m291.97,87.99c0,3.14-3,3.72-6.38,4.02-.67,0-1.28.1-1.88.1-2.1,0-3.6-.49-3.67-3.04v-.2c.08-1.27.08-2.65.08-4.21h-10.58c0,1.18,0,2.35.08,3.33v.1c0,3.04-2.47,3.82-6.15,4.21-.67.1-1.28.1-1.8.1-2.48,0-4.12-.59-4.12-3.14v-.29c.15-5.78.52-14.89.52-23.13-7.5,8.04-15.45,14.01-21.97,17.34-.45.29-.9.98-1.05,2.55-.15,1.47-.67,2.16-1.28,2.16-.52,0-1.05-.59-1.27-1.47-.9-3.82-3-13.82-3.53-17.44-.08-.49-.15-.78-.15-1.08,0-.69.3-.88.67-.88.15,0,.38.1.67.1.3.1.83.1,1.35.1,2.4,0,6.75-.49,11.85-1.27,1.28-11.27,2.33-25.28,2.33-33.61v-1.57c0-.39-.08-.78-.08-1.08,0-.59.15-.88.6-.88.15,0,.3.1.52.1,3.38.88,8.33,2.55,11.47,3.72.75.29,1.12.98,1.12,1.67,0,.78-.6,1.67-1.58,1.76-1.35.1-1.95.88-2.17,2.06-2.02,9.41-4.8,18.52-8.7,27.24,3.6-.69,7.42-1.47,11.17-2.35,0-7.25-.15-12.45-.6-14.41-.22-.98-.38-1.57-.38-1.96,0-.49.15-.69.45-.69.22,0,.52.1.83.2,2.92,1.27,6.97,3.23,9.52,4.51.08-5.78.15-13.52.15-20.87,0-10.29-.07-19.6-.38-21.17-.22-1.18-.38-1.96-.38-2.35,0-.49.15-.59.6-.59.15,0,.45.1.75.1,3.9.39,8.32.98,12.52,1.86.97.2,1.58.98,1.58,1.76s-.45,1.67-1.43,2.16c-1.2.59-1.72.88-1.72,2.25-.08,3.33-.08,8.62-.15,14.5h1.87c.68,0,1.2-.2,1.5-.78,1.12-2.65,2.7-5.78,4.2-8.62.22-.39.53-.59.83-.59s.75.2,1.05.59c2.33,2.94,4.65,6.47,6.97,10.29.22.39.38.88.38,1.37,0,.69-.3,1.27-1.12,1.27h-15.67c0,6.66,0,13.62.07,18.91.3-.1.9-.29,1.05-.49,1.5-2.06,2.62-3.82,3.83-5.49.23-.29.53-.49.9-.49.45,0,.9.2,1.27.49,2.25,1.76,4.95,4.21,7.2,6.57.6.59.97,1.37.97,2.25,0,.69-.3,1.47-1.12,2.06-1.35,1.08-1.8,1.37-1.8,3.23-.08,1.86-.08,5.1-.08,8.72,0,6.76.23,15.19.23,20.28v.1Zm-52.57-60.46c-3.45,0-5.85.49-7.42.78-.15,0-.3.1-.45.1-.52,0-.9-.29-1.2-.98-.38-.98-.83-2.45-1.12-3.72-.08-.29-.15-.59-.15-.78,0-.29.15-.39.38-.39s.45.1.83.2c2.1.69,4.95,1.27,7.95,1.37,0-7.35-.08-12.05-.38-14.4-.22-1.37-.38-2.16-.38-2.74s.23-.78.67-.78c.23,0,.53,0,.83.1,2.92.29,9.67,1.27,12.15,1.76,1.2.29,1.65.98,1.65,1.67,0,.88-.75,1.76-1.5,2.06-1.28.49-1.88,1.08-1.95,2.55-.08,2.16-.08,4.41-.08,6.47v3.33c.45-.1.9-.29,1.12-.78.98-2.16,2.62-5.49,3.53-7.55.15-.39.45-.59.75-.59s.67.2.97.59c1.8,2.35,4.5,6.57,5.92,9.21.22.49.45.98.45,1.47,0,.59-.3,1.08-1.05,1.08h-21.52Zm-5.92,29.5c-.08-.78-.08-1.57-.08-2.25,0-3.43.45-6.76.45-10.58,0-3.33-.38-7.15-1.72-11.76-.08-.2-.08-.29-.08-.49,0-.59.45-.98.9-.98.23,0,.45.1.68.29,5.77,6.17,9.82,14.11,9.82,22.05,0,.88-.08,1.76-.15,2.65-.6,4.9-3,7.35-5.32,7.35-2.17,0-4.2-2.16-4.5-6.27Zm46.72,24.01c.08-4.61.15-9.9.15-14.6s-.08-9.02-.15-11.86h-10.65c-.07,3.33-.15,9.11-.15,15.29,0,3.72,0,7.64.08,11.17h10.72Z"/>
</svg>