<?xml version="1.0" encoding="UTF-8"?>
<svg id="_图层_1" data-name="图层 1" xmlns="http://www.w3.org/2000/svg" viewBox="0 0 150 107">
  <path d="m35.47,26.35c-.68,5.1-1.5,9.31-2.48,13.52h13.2c.45,0,1.12-.1,1.5-.59,1.27-1.67,3.15-4.02,4.72-5.88.3-.29.6-.49.98-.49s.82.2,1.2.49c2.55,2.06,6.15,5.29,8.62,7.84.67.69,1.05,1.57,1.05,2.45,0,.98-.52,1.86-1.5,2.35-1.57.69-2.48,1.08-2.77,1.96-3.15,8.92-5.85,15.29-9.67,21.17,6.08,2.55,12.75,3.33,19.87,3.92.6,0,.97.78.97,1.47,0,.49-.22.98-.75,1.27-3.98,1.76-4.95,8.62-5.62,15.09-.08.69-.23,1.27-.98,1.27-.15,0-.38,0-.6-.1-6.67-2.16-14.25-5.88-20.85-13.23-7.5,7.06-17.25,11.56-30.52,13.42h-.3c-.67,0-.97-.29-.97-.78,0-.39.3-.98.9-1.37,9.37-5.59,17.17-12.15,24.07-20.97-2.62-4.9-4.42-10.68-5.92-17.83-5.85,15.48-13.95,25.48-24.52,33.32-.15.1-.22.1-.38.1h-.07c-.45,0-.83-.39-.83-.98,0-.29.08-.59.23-.88,9.3-15.38,16.42-35.18,18.6-56.54h-6.9c-2.92,0-6,.2-7.5.78-.15,0-.3.1-.45.1-.45,0-.9-.29-1.12-.88-.3-.98-.83-2.94-1.05-4.02-.08-.29-.08-.49-.08-.59,0-.39.15-.49.38-.49.15,0,.38,0,.6.1,2.55.88,6.15,1.37,8.92,1.37h7.5c.38-4.12.52-8.33.52-12.74,0-1.37-.3-2.55-.3-3.23,0-.59.23-.98.9-.98h.38c3.75.59,10.72,1.96,14.85,2.94,1.05.29,1.65,1.08,1.65,1.96,0,.78-.45,1.67-1.5,2.16-1.88.88-2.55.88-2.7,2.84-.23,2.45-.45,4.8-.75,7.06h16.2c.75,0,1.12-.1,1.58-.88,1.35-2.35,3.3-5.68,4.8-8.13.22-.39.6-.59.9-.59.38,0,.67.2,1.05.59,2.55,2.65,5.02,5.49,8.7,9.9.23.29.45.88.45,1.47,0,.69-.3,1.27-1.43,1.27h-32.77Zm-3.38,17.05c-.3,1.27-.67,2.45-1.05,3.63,2.92,7.25,5.32,11.66,9.07,15.39,3.37-5.78,6-12.05,7.65-19.01h-15.67Z"/>
  <path d="m145.57,75.45c.67,0,1.05.49,1.05,1.18,0,.49-.22,1.18-.83,1.67-2.7,2.55-2.85,4.51-3,10.09-.07,1.47-.15,2.06-1.27,2.06-2.55,0-5.1.1-7.5.1-4.42,0-8.55-.29-12.3-2.16-4.87-2.35-8.1-5.49-10.12-12.84-1.72,4.7-3.38,8.43-5.47,11.46-.53.69-.83,1.47-.83,3.33,0,1.18-.6,2.06-1.2,2.06-.38,0-.83-.29-1.12-1.27-1.27-3.82-2.62-8.23-3.6-11.56-4.27,3.62-10.05,6.96-14.62,8.82-.68.29-.83.59-1.05,2.06-.15,1.18-.67,1.76-1.2,1.76-.45,0-.9-.49-1.12-1.47-1.12-4.61-1.8-9.31-2.48-13.42-.07-.49-.15-.88-.15-1.18,0-.49.22-.59.97-.59h.75c1.65,0,3.6.2,5.62.2.08-1.96.08-3.92.08-5.98-.75.98-1.73,1.37-2.7,1.37-1.65,0-3.15-1.37-3.38-4.21v-1.18c0-2.65.45-4.41.45-6.66,0-1.67-.22-3.53-1.2-6.08-.08-.2-.08-.39-.08-.49,0-.59.3-.88.68-.88.15,0,.38,0,.52.2,2.47,2.16,4.58,5.19,5.78,8.04v-13.03c-1.73.1-3.68.2-4.95.69-.15,0-.3.1-.45.1-.45,0-.83-.29-1.05-.88-.3-.78-.75-2.35-.97-3.63v-.49c0-.39.07-.49.38-.49h.07c.15,0,.38,0,.6.1,1.88.69,4.42,1.08,6.38,1.27,0-3.33,0-6.37-.08-9.21h-1.65c-1.42,1.76-2.92,3.53-4.65,5.39-.23.2-.38.29-.6.29-.38,0-.67-.49-.67-1.08,0-.1,0-.29.08-.49,2.92-9.7,4.8-19.89,5.55-27.44.15-1.27.22-2.55.3-3.72.08-1.27,0-1.47.45-1.47h.6c3.75.59,8.25,1.37,11.92,2.16.83.2,1.28.88,1.28,1.57,0,.59-.45,1.27-1.35,1.57-.83.2-1.2.29-1.42.59,4.95,2.06,7.65,5,8.17,9.8,0,.29.08.59.08.98,0,1.18-.23,2.16-.67,3.04,6.22,1.67,9.97,4.02,10.57,9.7,0,.29.08.69.08.98,0,3.92-2.55,6.08-4.95,6.08-1.72,0-3.45-1.08-4.2-3.43-.53-1.57-.6-2.84-.6-4.12v-.78c0-1.96-.08-3.92-2.25-6.66-.67.59-1.5.98-2.32,1.08.82,1.08,1.72,2.45,2.62,3.82.3.39.38.78.38,1.18,0,.59-.3.98-.82.98h-6.3c0,2.74-.08,5.88-.08,8.92.6-1.27,1.95-3.72,3-5.39.15-.29.45-.49.67-.49s.53.2.83.49c1.57,1.86,3.07,4.12,4.5,6.76.22.49.3.88.3,1.18,0,.69-.3,1.08-.9,1.08h-8.4v21.26c.83-5,1.27-9.31,1.27-13.13v-2.45c0-.39,0-.59.3-.59.15,0,.38.1.75.29,1.88.98,5.55,3.23,6.52,4.12v-3.72h-1.2c-1.05,0-1.8,0-2.92.39-.15,0-.3.1-.38.1-.45,0-.75-.29-.97-.88-.23-.78-.67-2.16-.9-3.14-.08-.29-.08-.49-.08-.59,0-.29.08-.49.3-.49.15,0,.3.1.52.2,1.28.59,2.85.88,4.05.88h.45c.38,0,.6-.1.83-.29.22-.1.45-.29.52-.49.83-1.27,1.88-2.84,2.85-4.12.3-.39.6-.59.97-.59.3,0,.67.2,1.12.49,1.95,1.47,4.58,4.02,5.92,5.59.15-4.9.3-10.49.3-15.29,0-5.19-.15-9.51-.67-11.56-.15-.59-.22-1.08-.22-1.37,0-.49.15-.69.52-.69.22,0,.45.1.83.2,3.67,1.47,7.2,3.92,7.2,3.92h1.2c0-1.96,0-4.02-.08-5.98h-.6c-2.92,0-5.85.2-7.35.78-.15,0-.23.1-.38.1-.45,0-.9-.39-1.12-.98-.22-.78-.75-2.45-.9-3.72-.07-.29-.07-.39-.07-.59,0-.29.15-.39.38-.39.15,0,.38,0,.6.1,2.25.88,6.15,1.27,8.85,1.27h.53c-.08-3.14-.23-5.59-.45-6.76-.23-1.08-.45-1.76-.45-2.25,0-.59.3-.78.97-.78h.3c3.6.1,7.2.78,10.05,1.18.98.2,1.42.78,1.42,1.37,0,.69-.45,1.37-1.27,1.76-.83.49-1.12.88-1.2,2.16,0,.88-.08,1.96-.08,3.33h.3c.52,0,.97-.29,1.27-.78,1.05-1.76,2.17-3.92,3.22-5.68.23-.29.53-.49.83-.49s.6.2.9.49c1.57,2.06,3.75,5.29,5.1,7.64.22.39.38.88.38,1.27,0,.59-.3.98-1.05.98h-10.95v5.98h.45c.67,0,1.05-.2,1.35-.69.83-1.08,1.8-2.35,2.7-3.33.23-.29.53-.49.9-.49.22,0,.52.1.82.39,1.28,1.18,3.3,3.23,4.8,5.1.53.59.9,1.27.9,1.96,0,.59-.3,1.18-1.12,1.96-1.2,1.18-1.42,1.18-1.5,3.14-.08,1.18-.08,2.65-.08,4.31,0,4.31.23,9.7.3,14.41v.39c0,2.65-.75,3.53-3.67,3.92-.6.1-1.12.1-1.65.1-1.42,0-2.4-.39-2.7-1.86h-1.2v7.94h.07c.53,0,.9-.29,1.2-.78.97-1.57,2.1-3.33,3.15-4.7.22-.29.45-.49.67-.49.3,0,.6.2.82.49,1.65,1.67,3.68,4.12,5.55,6.66.3.39.45.88.45,1.27,0,.59-.38,1.08-1.12,1.08h-10.8c.07,2.06.15,3.82.15,5.68v.39c0,3.04-.97,3.92-4.72,4.21h-1.05c-3.08,0-3.9-1.18-3.9-3.82v-.39c0-1.96.08-3.82.15-6.08h-1.35c-2.85,0-5.48.2-6.9.78-.15,0-.22.1-.38.1-.45,0-.9-.39-1.12-.98-.3-.78-.75-2.45-.97-3.72v-.49c0-.39.08-.59.38-.59.15,0,.38,0,.6.1,2.25.98,5.7,1.27,8.4,1.27h1.42c0-2.45,0-5.19-.08-7.94h-1.5c0,2.55-.9,3.43-3.83,3.72-.6.1-1.05.1-1.5.1-1.8,0-2.62-.59-2.62-2.94v-.59c0-.29,0-.59.07-.88-1.42.88-1.65,1.27-1.72,3.14-.08,1.47-.08,3.62-.08,6.17,0,2.84,0,6.08.08,8.92,2.1,2.74,5.02,3.92,9.67,4.61,1.65.29,3.6.39,5.62.39,4.8,0,10.57-.59,16.27-1.37h.23Zm-50.1-56.64c0-1.37-.08-2.65-.75-4.12-2.4,6.47-4.58,11.47-7.8,16.27h5.02c.6,0,1.05-.2,1.35-.69.9-1.47,1.95-3.23,2.93-4.7-.15-.2-.23-.59-.3-.88-.38-1.37-.45-2.55-.45-3.72v-2.16Zm9.07,39.59c-.97.49-1.65.69-1.8,1.27-1.5,5.29-4.88,9.41-7.05,11.37.08,1.47.08,2.94.08,4.41,1.57-.1,3.15-.29,4.8-.59,1.27-.39,2.62-1.08,3.9-1.86.08-4.31.08-10,.08-14.6Zm-2.55-51.94c6.6.29,11.32,3.43,11.92,9.02,0,.39.07.69.07,1.08,0,4.12-2.55,6.76-5.02,6.76-1.5,0-3-.98-3.97-3.14-1.88-4.21.3-8.13-3.53-11.76-.45-.39-.67-.88-.67-1.27s.3-.69,1.05-.69h.15Zm23.7,30.28c0-3.04,0-5.88-.08-8.33h-2.1c0,2.06-.08,5-.15,8.33h2.33Zm-.08,13.92c0-2.84.08-6.57.08-10.39h-2.33v10.39h2.25Zm9.97-16.76c0-2.25,0-4.12-.08-5.49h-2.1c0,2.45-.08,5.29-.08,8.33h2.25v-2.84Zm-.15,16.76c.15-3.53.15-7.15.15-10.39h-2.25c0,3.72.08,7.35.15,10.39h1.95Z"/>
</svg>