<?xml version="1.0" encoding="UTF-8"?>
<svg id="_图层_1" data-name=" 图层 1" xmlns="http://www.w3.org/2000/svg" viewBox="0 0 140.05 50">
  <path d="m8.46,41.62c0-2.89.1-6.04.14-9.34-1.44,1.46-2.98,2.75-4.03,3.43-.39.27-.39.37-.46,1.14-.04.5-.28.78-.53.78-.21,0-.42-.18-.53-.6-.53-2.06-.91-4.12-1.23-6.04-.04-.23-.07-.41-.07-.55,0-.27.18-.18.84-.23.21,0,.42-.05.67-.05.04-3.21.07-6.91.07-10.62,0-4.49-.04-8.88-.07-12.09-.17.05-.28.09-.38.14-.07,0-.14.05-.18.05-.21,0-.35-.14-.46-.41-.14-.37-.39-1.24-.49-1.74,0-.14-.03-.23-.03-.27,0-.14.03-.18.14-.18h.03c.07,0,.14,0,.25.05,1.02.37,2.73.55,3.75.55h2.24c.32,0,.63-.14.81-.37.6-.82,1.16-1.6,1.82-2.43.1-.14.25-.18.35-.18.14,0,.25.05.39.18.91.92,1.96,2.11,3.05,3.48.1.14.17.32.17.5,0,.23-.14.46-.49.46h-1.4c0,4.72-.04,10.72-.04,16.76s.04,12.23.1,17.4c0,1.05-.98,1.56-2.38,1.69-.17,0-.35.05-.49.05-.95,0-1.58-.41-1.58-1.47v-.09Zm.17-28.85c0-1.97,0-3.8-.03-5.5h-1.3c0,1.56-.04,3.43-.04,5.5h1.37Zm0,1.56h-1.37v6.23h1.37v-6.23Zm-1.37,7.78c0,2.66,0,5.31.04,7.6.42-.05.84-.14,1.3-.27.03-2.43.03-4.9.03-7.33h-1.37Zm20.42,19.19c0,1.33-.7,1.83-2.24,1.88h-.49c-1.12,0-1.79-.28-1.79-1.37v-.18c.03-2.98.17-7.28.17-10.81,0-2.01-.03-3.8-.07-4.95-.63.32-.81.5-.81,1.19,0,9.3-.49,14.75-8.12,16.03h-.07c-.21,0-.35-.23-.35-.46,0-.09.04-.23.14-.32,2.45-2.01,3.71-4.53,4.03-8.11h-.91v.32c0,1.28-.49,1.6-1.65,1.69h-.53c-.84,0-1.33-.23-1.33-1.19v-.23c.04-1.65.1-3.07.1-4.4,0-1.6-.07-2.98-.18-4.12-.03-.37-.07-.69-.07-.87,0-.23.07-.32.28-.32h.17c1.33.18,2.59.37,3.71.55.17.05.35.09.46.18-.04-.5-.1-.96-.18-1.42-.03-.27-.1-.5-.1-.64,0-.18.07-.23.25-.23h.18c1.33.27,3.54.55,4.76.78-.04-.18-.07-.32-.07-.41,0-.18.07-.23.28-.23h.14c.21,0,.42.05.67.09-.03-.09-.07-.14-.07-.23-.35-1.74-.7-4.12-.98-5.68-.04-.18-.04-.32-.04-.46,0-.23.07-.27.18-.27.14,0,.31.05.49.09.35.05.74.09,1.16.09.53-1.05.98-2.11,1.37-3.16-.35.41-.84.64-1.3.64-.53,0-1.05-.27-1.44-.92-.42-.69-.52-1.33-.52-1.97h-.35c-.35,0-.49.09-.77.6-1.09,1.97-2.87,3.98-4.73,5.68,1.19,0,2.38-.05,3.26-.14,0-.55-.14-1.19-.52-2.02-.04-.05-.04-.14-.04-.23,0-.18.14-.41.31-.41.07,0,.14,0,.21.09,1.68,1.37,2.91,3.21,2.91,5.5v.37c-.1,1.56-1.02,2.34-1.86,2.34-.7,0-1.33-.5-1.51-1.47-.07-.27-.07-.55-.07-.82,0-.37.07-.73.14-1.05-1.19,1.1-2.91,2.34-3.96,2.98-.25.14-.46.23-.6.82-.1.46-.31.78-.56.78-.21,0-.39-.23-.53-.87-.28-1.42-.77-3.8-1.02-5.45-.03-.18-.03-.32-.03-.41,0-.23.07-.27.17-.27.14,0,.32.05.49.09.39.05.88.09,1.44.14.6-1.24,1.16-2.52,1.58-3.71-.35.37-.81.6-1.26.6-.53,0-1.05-.32-1.37-1.01-.35-.69-.42-1.37-.42-2.01,0-.5.04-1.01.04-1.47,0-.78-.1-1.47-.7-2.11-.1-.14-.18-.27-.18-.41,0-.23.14-.41.32-.41h.1c.7.18,1.3.46,1.86.82.28-1.51.46-3.16.46-4.3,0-.27,0-.5-.03-.69,0-.18-.04-.32-.04-.41,0-.23.07-.32.28-.32h.21c1.19.27,3.57.87,5.04,1.33.42.14.63.5.63.82,0,.37-.25.69-.7.73-.67.05-.81.09-1.09.5-.7.96-2.14,2.38-3.4,3.39.53.6.88,1.28,1.02,1.97.04.23.07.41.07.6.25-.82.42-1.51.56-2.15.07-.41.14-.73.17-1.05.11-.55.14-.92.35-.92.03,0,.07.05.1.05,1.16.55,3.01,1.65,4.06,2.34,0-.73-.21-1.51-.95-2.34-.11-.14-.14-.27-.14-.41,0-.23.14-.41.35-.41h.07c.63.18,1.26.46,1.79.73.18-1.37.28-2.88.28-3.98v-.46c0-.18-.04-.37-.04-.46,0-.23.04-.32.21-.32.07,0,.18,0,.28.05,1.19.27,3.54.82,5.01,1.33.39.14.56.46.56.78,0,.37-.28.73-.74.73-.52,0-.7.05-.95.41-.7.92-1.89,2.11-3.08,3.02.67.69,1.09,1.51,1.23,2.43.04.23.04.46.04.69.52-1.56.81-2.93.91-3.89.07-.55.1-.96.32-.96.03,0,.07.05.1.05,1.33.6,3.29,1.65,4.34,2.34.35.23.53.55.53.82,0,.37-.28.64-.77.64h-.1c-.53,0-.67.09-.95.6-1.09,1.92-2.63,4.03-4.55,5.77.98.05,2.07.05,3.05.09-.07-.55-.25-1.14-.53-1.79-.04-.09-.07-.23-.07-.32,0-.23.14-.46.32-.46.03,0,.1.05.17.09,2.1,1.69,3.57,3.53,3.61,6.14v.27c-.03,1.74-1.05,2.66-2,2.66-.63,0-1.26-.41-1.54-1.24-.18-.5-.21-.92-.21-1.37,0-.6.11-1.19.18-1.79-1.3,1.05-2.98,2.15-4.06,2.66-.28.14-.49.37-.6.96-.03.18-.1.37-.17.5,1.05.14,2.14.32,3.15.46.49.09.77.41.77.73,0,.05-.03.14-.03.18h.17c1.3.18,2.77.5,3.85.78.35.09.53.37.53.69,0,.28-.18.6-.46.69-.53.18-.56.37-.56.87v2.47c0,1.14.04,2.52.04,4.17v.14c0,1.24-.49,1.47-1.72,1.69-.28.05-.53.09-.74.09-.7,0-1.12-.37-1.12-1.28v-.23c0-.37.03-.73.03-1.1h-1.26c0,2.34.1,4.85.14,7.01v.09Zm-9.49-8.75c.03-1.24.07-2.47.07-3.62,0-.73,0-1.42-.04-2.06-.14.14-.28.27-.52.37-.39.18-.56.46-.56,1.01,0,.6-.04,1.19-.04,1.97,0,.64.04,1.42.04,2.33h1.05Zm10.65,0c.04-.64.04-1.28.04-1.92,0-1.65-.07-3.07-.18-4.21-.04-.37-.07-.64-.1-.82-.1.09-.25.23-.46.32-.42.23-.53.23-.56,1.01-.03.87-.03,2.29-.03,4.03v1.6h1.3Z"/>
  <path d="m55.51,41.16c0,1.28-.98,1.79-3.12,1.97-.21,0-.42.05-.6.05-1.68,0-2.24-.73-2.24-1.83v-.23c.04-1.33.14-2.52.17-3.62-.14.09-.35.14-.6.14-.74.05-.88.05-1.3.37-2.94,2.34-6.16,3.34-10.44,3.94h-.17c-.21,0-.35-.14-.35-.32s.07-.37.28-.5c2.94-2.24,5.01-4.35,6.02-6.27.04-.09.07-.14.1-.23-.53.05-1.02.09-1.51.14-.42.05-.6.32-.67.96-.07.55-.32.82-.56.82s-.49-.23-.63-.78c-.39-1.51-.81-3.57-1.12-5.36-.04-.18-.04-.32-.04-.41,0-.27.11-.37.25-.37.1,0,.25.05.38.05,1.79.23,4.2.46,7.11.6-.07-.05-.14-.14-.21-.18-1.47-1.33-.42-3.07-3.96-4.53-.14-.05-.25-.23-.25-.46s.14-.5.42-.5c.53,0,1.12-.05,1.75-.05,1.05,0,2.17.09,3.12.37.39-.64.63-1.19.84-1.69h-5.78v.18c0,1.24-1.23,1.33-2.21,1.33h-.32c-.84,0-1.54-.23-1.54-1.19v-.14c0-.6.1-1.56.1-2.43,0-.64-.04-1.28-.14-1.65-.1-.41-.18-.64-.18-.82s.07-.23.28-.23h.1c1.05.05,3.12.41,4.34.64.35.09.56.32.56.6s-.18.6-.56.78c-.25.14-.46.27-.46.78v.78h1.19c.04-1.24.04-2.56.07-3.94h-3.26c-.91,0-1.93.05-2.38.18h-.14c-.14,0-.25-.05-.35-.23-.1-.32-.31-1.01-.39-1.42v-.09c0-.14.07-.18.14-.18s.14,0,.21.05c.88.32,2,.41,2.8.41h3.36v-1.28h-1.44c-.25.5-.81.55-1.68.69-.32.05-.6.09-.88.09-.63,0-1.09-.18-1.09-.96v-.14c.07-1.01.14-2.38.14-3.66,0-1.19-.07-2.29-.17-2.93-.07-.37-.1-.64-.1-.82s.03-.23.14-.23c.07,0,.21.05.35.09,1.37.32,3.82,1.05,3.82,1.05h.88c0-.5,0-1.01-.04-1.47h-1.65c-1.37,0-2.8.05-3.5.32-.07,0-.14.05-.18.05-.21,0-.39-.14-.49-.41-.14-.37-.28-1.05-.39-1.6v-.23c0-.18.04-.23.14-.23h.07c.07,0,.14,0,.25.05,1.05.41,2.8.6,4.1.6h1.61v-.23c0-.6-.07-1.01-.1-1.28-.11-.64-.18-1.05-.18-1.24s.07-.23.21-.23c.1,0,.25.05.46.05,1.37.18,2.77.37,4.17.64.46.09.67.41.67.73,0,.27-.21.64-.6.78-.42.18-.49.27-.49.78h1.54c.25,0,.49-.14.63-.37.39-.6.95-1.28,1.33-1.83.07-.09.18-.14.32-.14s.25.05.39.14c.7.69,1.58,1.65,2.31,2.66.14.18.18.37.18.5,0,.27-.14.5-.46.5h-6.27v1.47h1.02c.31,0,.46-.14.6-.27.25-.27.74-.69,1.09-.96.14-.09.25-.18.39-.18s.28.05.42.18c.49.37,1.37,1.1,1.96,1.6.25.23.39.46.39.69s-.1.46-.35.69c-.35.37-.53.55-.53,1.05v.09c0,.46.04,1.88.14,2.89,0,.14.03.23.03.32,0,.18-.03.27-.1.41.07-.05.1-.05.18-.05.1,0,.25.05.39.18.63.5,1.44,1.19,2.1,1.83.17.14.25.32.25.5,0,.23-.18.41-.42.41h-7.53c0,1.28.03,2.61.03,3.94h1.54c0-.37.04-.73.04-1.05,0-.64-.04-1.19-.1-1.47-.11-.41-.18-.69-.18-.82,0-.18.07-.23.28-.23h.1c1.4.05,3.29.41,4.31.55.39.05.56.32.56.6s-.18.6-.56.78c-.25.14-.46.37-.49.73v1.74c1.3-.82,2.73-1.97,3.99-3.25-.63-1.28-1.19-2.79-1.68-4.62-.32.05-.63.14-.88.23h-.1c-.18,0-.42-.09-.53-.41-.1-.27-.28-.82-.42-1.33-.14,0-.28.05-.42.05h-.04c-.18,0-.25-.14-.25-.32s.04-.37.17-.5c1.09-1.19,1.61-3.48,1.61-6.14,0-.92-.07-1.88-.18-2.84-.04-.18-.04-.37-.04-.46,0-.18.04-.27.14-.27.07,0,.18.05.28.09,1.58.64,4.03,1.97,4.03,1.97h.39c.28,0,.42-.18.67-.46.28-.37.95-1.01,1.4-1.47.14-.14.25-.23.39-.23.17,0,.31.09.52.23.63.5,1.61,1.33,2.24,2.01.25.27.46.6.46.92,0,.23-.14.46-.42.69-.46.37-.74.46-.74.87v.82c0,.27.14.5.42.55.17.05.35.05.49.05.21,0,.39,0,.6-.09.46-.14.56-.64.84-3.25.04-.41.18-.6.35-.6.14,0,.28.18.32.64.14,2.15.25,2.52.7,2.89.28.23.42.78.42,1.37,0,1.05-.49,2.29-1.72,2.47-.49.05-.95.09-1.44.14.53.46,1.05.96,1.51,1.42.39.37.56.73.56,1.1,0,.41-.25.78-.74.92-.63.23-.74.14-1.02.6-.67,1.05-1.44,1.97-2.24,2.79,1.16.18,2.35.27,3.54.27.49,0,1.02-.05,1.54-.05h.04c.25,0,.35.23.35.5,0,.18-.1.46-.28.55-1.33.69-1.44,1.6-1.65,3.89-.07.55-.14.87-.52.87h-.14c-2.87-.46-5.08-1.47-6.79-3.34-1.4.69-2.91,1.15-4.45,1.47.07.09.1.23.1.37,0,.32-.28.64-.81.69-.67.09-.88.23-1.16.37-.98.5-2.14.92-3.36,1.19.1.14.21.32.28.46.28.55.38,1.05.38,1.56,0,.37-.07.69-.17,1.01,2.24-1.6,3.99-3.25,5.57-5.31.18-.23.18-.5.49-.5.07,0,.18,0,.28.05,1.72.5,3.57,1.14,5.36,1.79.42.14.63.5.63.82,0,.37-.32.73-.98.73-.56,0-.77.09-1.05.23-2.8,1.46-5.78,2.56-9.1,3.57,3.15,0,6.58-.05,10.16-.18-.35-.6-.88-1.19-1.79-1.79-.21-.14-.31-.37-.31-.55,0-.23.1-.46.46-.46h.04c2.84.05,5.36.41,6.51,2.61.32.6.46,1.19.46,1.74,0,1.6-1.19,2.79-2.38,2.79-.46,0-.95-.18-1.33-.59-.74-.78-.91-1.56-1.12-2.38-2.07.55-4.2,1.01-6.34,1.42v1.37c0,2.2.14,4.3.18,6.64v.14Zm-11.8-31.41h-1.3c0,.32-.04.87-.04,1.51h1.33v-1.51Zm0,2.75h-1.33v1.56h1.33v-1.56Zm6.06,21.38c-1.75.27-3.5.46-5.15.64,1.65.46,3.4,1.05,4.69,1.56.17.09.31.18.46.27v-2.47Zm-2.07-24.13v1.51h1.65c0-.69,0-1.24-.04-1.51h-1.61Zm0,2.75v1.56h1.61c.04-.46.04-1.01.04-1.56h-1.65Zm0,2.84v1.28h3.08c.25,0,.39-.14.6-.37.21-.23.49-.46.77-.73-.28.14-.6.18-.98.18-.18,0-.35.05-.49.05-.53,0-.98-.14-1.23-.41h-1.75Zm12.5-2.24c.28,0,.53-.09.81-.37.14-.18.28-.32.42-.46-.98-.27-1.47-1.1-1.47-2.75v-3.11h-1.09c0,4.17-1.3,5.77-3.43,6.46.84.18,1.75.23,2.49.23h2.28Zm2.56,28.12c-1.96-2.01-2.14-4.03-6.27-5.59-.17-.09-.28-.32-.28-.55s.11-.41.42-.41c1.19-.09,2.42-.14,3.54-.14,2.45,0,4.55.37,5.64,1.88.6.87.88,1.83.88,2.66,0,1.69-.95,3.02-2.21,3.02-.53,0-1.12-.27-1.72-.87Zm-4.83-26.56c-.46,0-.95,0-1.37.05.67,1.24,1.47,2.15,2.35,2.84.81-1.01,1.4-1.97,1.72-2.88h-2.7Z"/>
  <path d="m90.07,43.13c-.53,0-.56-.32-.6-.92-.21-3.57-1.16-4.72-4.55-6.14-.28-.14-.42-.41-.42-.69,0-.32.18-.59.46-.59h.07c1.86.23,3.43.41,4.9.41h.25c.84,0,1.12-.28,1.33-1.65.56-3.66.81-9.57.84-11.59h-6.48c-.28,2.34-.74,5.82-1.54,8.24-2.59,7.83-6.76,11.54-11.94,12.96h-.14c-.25,0-.38-.18-.38-.41,0-.18.07-.32.21-.5,2.94-3.3,4.94-6.73,6.62-13.42,1.19-4.67,1.51-9.94,1.54-16.16h-3.05c-1.37,0-2.77.09-3.47.37-.07,0-.11.05-.18.05-.21,0-.46-.18-.56-.46-.14-.37-.35-1.28-.46-1.79-.04-.14-.04-.18-.04-.27,0-.14.07-.18.18-.18h.04c.07,0,.17,0,.28.05,1.05.41,2.87.6,4.17.6h7.04c.04-1.01.04-2.15.04-3.21,0-1.65-.04-3.16-.14-3.8-.14-.55-.21-.92-.21-1.1,0-.23.1-.27.35-.27h.32c1.93.18,4.48.5,6.3.92.53.09.77.5.77.92,0,.37-.21.82-.7,1.01-.59.23-.84.41-.84,1.05,0,.73-.04,1.51-.04,2.33,0,.69.04,1.42.04,2.15h4.66c.28,0,.56-.18.74-.41.88-1.33,1.75-2.52,2.66-3.8.1-.14.25-.23.42-.23s.35.05.49.23c1.23,1.33,2.56,3.02,3.75,4.58.14.18.25.46.25.69,0,.32-.17.6-.56.6h-16.07c0,2.56-.14,5.08-.39,7.65h5.18c.35,0,.63-.05.81-.27.67-.87,1.61-2.06,2.35-2.88.14-.18.31-.23.53-.23.17,0,.38.05.56.18,1.19.87,2.91,2.29,3.96,3.25.32.32.56.78.56,1.24,0,.41-.21.87-.7,1.24-.7.55-.95.78-.98,1.51-.11,4.12-.46,8.75-.88,12.09-.59,4.49-2.03,6.5-7.07,6.69h-.25Z"/>
  <path d="m137.76,28.57c-.35,2.61-.53,4.4-.53,5.68,0,1.05.11,1.79.42,2.43.49,1.01.7,1.97.7,2.84,0,2.11-1.23,3.66-2.98,3.66-.63,0-1.29-.18-2.03-.64-6.9-4.17-9.17-13.14-9.74-28.07h-11.21c-1.37,0-2.8.09-3.5.37-.07,0-.11.05-.17.05-.21,0-.42-.18-.53-.46-.14-.37-.39-1.33-.49-1.83-.04-.14-.04-.18-.04-.27,0-.14.07-.18.17-.18h.04c.07,0,.17,0,.28.05,1.05.41,2.94.6,4.24.6h11.14c-.07-2.7-.11-5.63-.11-8.79,0-.41-.14-.78-.14-1.05,0-.18.07-.27.35-.27h.07c1.58.05,4.73.5,6.13.92-.04-.09-.04-.18-.04-.27,0-.23.14-.5.49-.5h.1c2.66.37,4.76,1.05,5.43,3.94.1.41.14.78.14,1.1,0,1.01-.35,1.79-.81,2.38.95.87,1.96,1.83,2.94,2.98.1.14.25.46.25.73s-.14.55-.56.55h-8.89c.21,10.72,1.65,16.03,4.66,19.28.25.28.53.41.77.41.31,0,.59-.23.8-.73.6-1.51,1.23-3.48,1.68-5.13.14-.5.38-.73.56-.73.21,0,.39.27.39.78v.23Zm-13.38,2.33c.31,0,.49.18.49.41s-.11.46-.39.64c-4.69,3.89-9.49,6.09-12.85,7.23-.46.14-.63.37-.7,1.28-.04.73-.35,1.19-.67,1.19-.25,0-.53-.27-.67-.87-.6-2.33-1.12-5.27-1.58-7.55-.04-.28-.07-.46-.07-.6,0-.23.07-.27.21-.27.1,0,.25.05.38.05.49.04,1.02.04,1.58.04,1.02,0,2.17-.04,3.4-.14.04-1.19.04-2.43.04-3.66,0-2.01-.04-3.98-.07-5.77h-.25c-1.37,0-2.73.18-3.4.37-.07,0-.11.05-.17.05-.21,0-.46-.14-.56-.41-.14-.37-.38-1.33-.49-1.83-.04-.14-.04-.23-.04-.27,0-.18.07-.23.17-.23.07,0,.18.05.32.09,1.05.46,2.84.64,4.13.64h2.98c.31,0,.52-.09.74-.41.67-1.05,1.54-2.38,2.31-3.48.11-.18.25-.27.42-.27.14,0,.31.09.46.27,1.12,1.14,2.35,2.56,3.61,4.26.14.18.25.41.25.64,0,.32-.17.6-.56.6h-4.48c-.04,1.92-.04,4.08-.04,6.18v2.66c1.72-.23,3.54-.5,5.39-.82h.11Zm6.06-18.13c.35,0,.56-.05.81-.41.35-.5.77-1.05,1.16-1.6-1.01-1.14-1.12-2.2-1.12-3.21v-.87c0-.87-.11-1.69-.88-2.52,0,.05.04.14.04.18,0,.37-.25.78-.77,1.01-.52.27-.77.46-.77,1.37-.04,1.51-.04,2.98-.04,4.35v1.69h1.58Z"/>
</svg>